<svg width="920" height="220" viewBox="0 0 920 220" fill="none" xmlns="http://www.w3.org/2000/svg">
  <defs>
    <linearGradient id="pdf-logo-bg" x1="88" y1="76" x2="420" y2="438" gradientUnits="userSpaceOnUse">
      <stop stop-color="#022C22" />
      <stop offset="1" stop-color="#065F46" />
    </linearGradient>
  </defs>
  <g transform="translate(12 18) scale(0.359375)">
    <rect x="32" y="32" width="448" height="448" rx="128" fill="url(#pdf-logo-bg)" />
    <rect x="122" y="88" width="238" height="336" rx="58" fill="#FFFFFF" />
    <path d="M278 88L360 170V226H278V88Z" fill="#D1FAE5" />
    <path d="M170 154H222V358H170V154Z" fill="#047857" />
    <path d="M222 154H244C313.624 154 370 201.905 370 260C370 318.095 313.624 366 244 366H222V322H242C282.317 322 315 294.242 315 260C315 225.758 282.317 198 242 198H222V154Z" fill="#10B981" />
    <path d="M286 218L356 260L286 302V218Z" fill="#6EE7B7" />
  </g>
  <text
    x="208"
    y="102"
    fill="#18181B"
    font-family="Inter, ui-sans-serif, system-ui, -apple-system, BlinkMacSystemFont, 'Segoe UI', sans-serif"
    font-size="72"
    font-weight="800"
    letter-spacing="-2.2"
  >
    <tspan fill="#059669">PDF</tspan><tspan fill="#18181B">Tools</tspan>
  </text>
  <text
    x="210"
    y="146"
    fill="#71717A"
    font-family="Inter, ui-sans-serif, system-ui, -apple-system, BlinkMacSystemFont, 'Segoe UI', sans-serif"
    font-size="24"
    font-weight="500"
    letter-spacing="-0.3"
  >
    by WellFriend
  </text>
</svg>
